#N canvas 700 161 826 399 10;
#X obj 251 115 soundfiler;
#X obj 251 62 pack s \$0;
#X obj 31 95 outlet~;
#X obj 251 39 inlet;
#X text 249 17 filename;
#X obj 30 41 inlet;
#X text 30 22 trigger;
#X obj 378 37 table \$0.left;
#X obj 475 37 table \$0.right;
#X msg 251 88 read -resize \$1 \$2.left \$2.right;
#X obj 31 64 tabplay~ \$0.left;
#X obj 141 95 outlet~;
#X obj 141 64 tabplay~ \$0.right;
#X connect 1 0 9 0;
#X connect 3 0 1 0;
#X connect 5 0 10 0;
#X connect 5 0 12 0;
#X connect 9 0 0 0;
#X connect 10 0 2 0;
#X connect 12 0 11 0;
